<svg xmlns="http://www.w3.org/2000/svg" viewBox="40 -80 320 320" width="512" height="512">
  <rect x="40" y="-80" width="320" height="320" rx="71" fill="oklch(0.488 0.243 264.376)" style="fill:oklch(0.488 0.243 264.376);stroke:none;color:rgb(255, 255, 255);stroke-width:1px;stroke-linecap:butt;stroke-linejoin:miter;opacity:1;font-family:&quot;Anthropic Sans&quot;, -apple-system, BlinkMacSystemFont, &quot;Segoe UI&quot;, sans-serif;font-size:16px;font-weight:400;text-anchor:start;dominant-baseline:auto"/>
  
  <path fill="#FFFFFF" fill-rule="evenodd" d="M 323.0 56.0 L 322.0 57.0 L 323.0 59.0 L 322.0 63.0 L 323.0 82.0 L 334.0 82.0 L 335.0 81.0 L 335.0 57.0 L 334.0 56.0 Z M 67.0 56.0 L 66.0 57.0 L 66.0 81.0 L 69.0 83.0 L 77.0 83.0 L 79.0 80.0 L 78.0 56.0 Z M 300.0 33.0 L 299.0 34.0 L 299.0 102.0 L 300.0 103.0 L 314.0 103.0 L 316.0 101.0 L 316.0 35.0 L 314.0 33.0 Z M 87.0 33.0 L 85.0 35.0 L 85.0 101.0 L 87.0 103.0 L 100.0 103.0 L 101.0 102.0 L 101.0 34.0 L 100.0 33.0 Z M 273.0 27.0 L 271.0 29.0 L 271.0 58.0 L 270.0 59.0 L 248.0 59.0 L 246.0 60.0 L 237.0 77.0 L 237.0 79.0 L 270.0 79.0 L 271.0 80.0 L 271.0 106.0 L 273.0 108.0 L 289.0 108.0 L 292.0 106.0 L 292.0 29.0 L 290.0 27.0 Z M 111.0 27.0 L 108.0 29.0 L 108.0 105.0 L 109.0 107.0 L 114.0 108.0 L 127.0 108.0 L 129.0 105.0 L 129.0 80.0 L 130.0 79.0 L 162.0 79.0 L 162.0 76.0 L 154.0 59.0 L 130.0 59.0 L 128.0 57.0 L 128.0 42.0 L 129.0 40.0 L 128.0 39.0 L 128.0 28.0 L 127.0 27.0 Z M 263.0 12.0 L 260.0 11.0 L 255.0 13.0 L 227.0 32.0 L 205.0 53.0 L 193.0 69.0 L 185.0 86.0 L 180.0 108.0 L 180.0 132.0 L 181.0 137.0 L 185.0 144.0 L 189.0 147.0 L 198.0 150.0 L 205.0 149.0 L 212.0 145.0 L 216.0 140.0 L 217.0 137.0 L 218.0 96.0 L 223.0 79.0 L 231.0 62.0 L 241.0 47.0 L 265.0 19.0 L 265.0 14.0 Z M 136.0 11.0 L 135.0 12.0 L 136.0 19.0 L 145.0 28.0 L 159.0 46.0 L 169.0 61.0 L 177.0 76.0 L 178.0 76.0 L 185.0 64.0 L 198.0 47.0 L 198.0 45.0 L 183.0 31.0 L 163.0 18.0 L 145.0 10.0 Z" style="fill:rgb(255, 255, 255);stroke:none;color:rgb(255, 255, 255);stroke-width:1px;stroke-linecap:butt;stroke-linejoin:miter;opacity:1;font-family:&quot;Anthropic Sans&quot;, -apple-system, BlinkMacSystemFont, &quot;Segoe UI&quot;, sans-serif;font-size:16px;font-weight:400;text-anchor:start;dominant-baseline:auto"/>
</svg>